<svg width="522" height="58" viewBox="0 0 522 58" fill="none" xmlns="http://www.w3.org/2000/svg">
<path d="M85.7415 19.7273H91.8097L98.2188 35.3636H98.4915L104.901 19.7273H110.969V43H106.196V27.8523H106.003L99.9801 42.8864H96.7301L90.7074 27.7955H90.5142V43H85.7415V19.7273ZM122.886 43.3409C121.091 43.3409 119.545 42.9773 118.25 42.25C116.962 41.5152 115.97 40.4773 115.273 39.1364C114.576 37.7879 114.227 36.1932 114.227 34.3523C114.227 32.5568 114.576 30.9811 115.273 29.625C115.97 28.2689 116.951 27.2121 118.216 26.4545C119.489 25.697 120.981 25.3182 122.693 25.3182C123.845 25.3182 124.917 25.5038 125.909 25.875C126.909 26.2386 127.78 26.7879 128.523 27.5227C129.273 28.2576 129.856 29.1818 130.273 30.2955C130.689 31.4015 130.898 32.697 130.898 34.1818V35.5114H116.159V32.5114H126.341C126.341 31.8144 126.189 31.197 125.886 30.6591C125.583 30.1212 125.163 29.7008 124.625 29.3977C124.095 29.0871 123.477 28.9318 122.773 28.9318C122.038 28.9318 121.386 29.1023 120.818 29.4432C120.258 29.7765 119.818 30.2273 119.5 30.7955C119.182 31.3561 119.019 31.9811 119.011 32.6705V35.5227C119.011 36.3864 119.17 37.1326 119.489 37.7614C119.814 38.3902 120.273 38.875 120.864 39.2159C121.455 39.5568 122.155 39.7273 122.966 39.7273C123.504 39.7273 123.996 39.6515 124.443 39.5C124.89 39.3485 125.273 39.1212 125.591 38.8182C125.909 38.5152 126.152 38.1439 126.318 37.7045L130.795 38C130.568 39.0758 130.102 40.0152 129.398 40.8182C128.701 41.6136 127.799 42.2348 126.693 42.6818C125.595 43.1212 124.326 43.3409 122.886 43.3409ZM120.841 23.2955L123.25 18.125H127.727L124.261 23.2955H120.841ZM140.489 43.2841C139.163 43.2841 137.962 42.9432 136.886 42.2614C135.818 41.572 134.97 40.5606 134.341 39.2273C133.72 37.8864 133.409 36.2424 133.409 34.2955C133.409 32.2955 133.731 30.6326 134.375 29.3068C135.019 27.9735 135.875 26.9773 136.943 26.3182C138.019 25.6515 139.197 25.3182 140.477 25.3182C141.455 25.3182 142.269 25.4848 142.92 25.8182C143.58 26.1439 144.11 26.553 144.511 27.0455C144.92 27.5303 145.231 28.0076 145.443 28.4773H145.591V19.7273H150.42V43H145.648V40.2045H145.443C145.216 40.6894 144.894 41.1705 144.477 41.6477C144.068 42.1174 143.534 42.5076 142.875 42.8182C142.223 43.1288 141.428 43.2841 140.489 43.2841ZM142.023 39.4318C142.803 39.4318 143.462 39.2197 144 38.7955C144.545 38.3636 144.962 37.7614 145.25 36.9886C145.545 36.2159 145.693 35.3106 145.693 34.2727C145.693 33.2348 145.549 32.3333 145.261 31.5682C144.973 30.803 144.557 30.2121 144.011 29.7955C143.466 29.3788 142.803 29.1705 142.023 29.1705C141.227 29.1705 140.557 29.3864 140.011 29.8182C139.466 30.25 139.053 30.8485 138.773 31.6136C138.492 32.3788 138.352 33.2652 138.352 34.2727C138.352 35.2879 138.492 36.1856 138.773 36.9659C139.061 37.7386 139.473 38.3447 140.011 38.7841C140.557 39.2159 141.227 39.4318 142.023 39.4318ZM154.401 43V25.5455H159.241V43H154.401ZM156.832 23.2955C156.113 23.2955 155.495 23.0568 154.98 22.5795C154.473 22.0947 154.219 21.5152 154.219 20.8409C154.219 20.1742 154.473 19.6023 154.98 19.125C155.495 18.6402 156.113 18.3977 156.832 18.3977C157.552 18.3977 158.166 18.6402 158.673 19.125C159.188 19.6023 159.446 20.1742 159.446 20.8409C159.446 21.5152 159.188 22.0947 158.673 22.5795C158.166 23.0568 157.552 23.2955 156.832 23.2955ZM168.097 43.3295C166.983 43.3295 165.991 43.1364 165.119 42.75C164.248 42.3561 163.559 41.7765 163.051 41.0114C162.551 40.2386 162.301 39.2765 162.301 38.125C162.301 37.1553 162.479 36.3409 162.835 35.6818C163.191 35.0227 163.676 34.4924 164.29 34.0909C164.903 33.6894 165.6 33.3864 166.381 33.1818C167.169 32.9773 167.994 32.8333 168.858 32.75C169.873 32.6439 170.691 32.5455 171.312 32.4545C171.934 32.3561 172.384 32.2121 172.665 32.0227C172.945 31.8333 173.085 31.553 173.085 31.1818V31.1136C173.085 30.3939 172.858 29.8371 172.403 29.4432C171.956 29.0492 171.32 28.8523 170.494 28.8523C169.623 28.8523 168.93 29.0455 168.415 29.4318C167.9 29.8106 167.559 30.2879 167.392 30.8636L162.915 30.5C163.142 29.4394 163.589 28.5227 164.256 27.75C164.922 26.9697 165.782 26.3712 166.835 25.9545C167.896 25.5303 169.123 25.3182 170.517 25.3182C171.487 25.3182 172.415 25.4318 173.301 25.6591C174.195 25.8864 174.987 26.2386 175.676 26.7159C176.373 27.1932 176.922 27.8068 177.324 28.5568C177.725 29.2992 177.926 30.1894 177.926 31.2273V43H173.335V40.5795H173.199C172.919 41.125 172.544 41.6061 172.074 42.0227C171.604 42.4318 171.04 42.7538 170.381 42.9886C169.722 43.2159 168.96 43.3295 168.097 43.3295ZM169.483 39.9886C170.195 39.9886 170.824 39.8485 171.369 39.5682C171.915 39.2803 172.343 38.8939 172.653 38.4091C172.964 37.9242 173.119 37.375 173.119 36.7614V34.9091C172.968 35.0076 172.759 35.0985 172.494 35.1818C172.237 35.2576 171.945 35.3295 171.619 35.3977C171.294 35.4583 170.968 35.5152 170.642 35.5682C170.316 35.6136 170.021 35.6553 169.756 35.6932C169.188 35.7765 168.691 35.9091 168.267 36.0909C167.843 36.2727 167.513 36.5189 167.278 36.8295C167.044 37.1326 166.926 37.5114 166.926 37.9659C166.926 38.625 167.165 39.1288 167.642 39.4773C168.127 39.8182 168.741 39.9886 169.483 39.9886ZM190.966 25.5455V29.1818H180.455V25.5455H190.966ZM182.841 21.3636H187.682V37.6364C187.682 38.0833 187.75 38.4318 187.886 38.6818C188.023 38.9242 188.212 39.0947 188.455 39.1932C188.705 39.2917 188.992 39.3409 189.318 39.3409C189.545 39.3409 189.773 39.322 190 39.2841C190.227 39.2386 190.402 39.2045 190.523 39.1818L191.284 42.7841C191.042 42.8598 190.701 42.947 190.261 43.0455C189.822 43.1515 189.288 43.2159 188.659 43.2386C187.492 43.2841 186.47 43.1288 185.591 42.7727C184.72 42.4167 184.042 41.8636 183.557 41.1136C183.072 40.3636 182.833 39.4167 182.841 38.2727V21.3636ZM194.119 43V25.5455H198.96V43H194.119ZM196.551 23.2955C195.831 23.2955 195.214 23.0568 194.699 22.5795C194.191 22.0947 193.938 21.5152 193.938 20.8409C193.938 20.1742 194.191 19.6023 194.699 19.125C195.214 18.6402 195.831 18.3977 196.551 18.3977C197.271 18.3977 197.884 18.6402 198.392 19.125C198.907 19.6023 199.165 20.1742 199.165 20.8409C199.165 21.5152 198.907 22.0947 198.392 22.5795C197.884 23.0568 197.271 23.2955 196.551 23.2955ZM210.724 43.3409C208.959 43.3409 207.433 42.9659 206.145 42.2159C204.865 41.4583 203.876 40.4053 203.179 39.0568C202.482 37.7008 202.134 36.1288 202.134 34.3409C202.134 32.5379 202.482 30.9621 203.179 29.6136C203.876 28.2576 204.865 27.2045 206.145 26.4545C207.433 25.697 208.959 25.3182 210.724 25.3182C212.49 25.3182 214.012 25.697 215.293 26.4545C216.58 27.2045 217.573 28.2576 218.27 29.6136C218.967 30.9621 219.315 32.5379 219.315 34.3409C219.315 36.1288 218.967 37.7008 218.27 39.0568C217.573 40.4053 216.58 41.4583 215.293 42.2159C214.012 42.9659 212.49 43.3409 210.724 43.3409ZM210.747 39.5909C211.55 39.5909 212.221 39.3636 212.759 38.9091C213.296 38.447 213.702 37.8182 213.974 37.0227C214.255 36.2273 214.395 35.322 214.395 34.3068C214.395 33.2917 214.255 32.3864 213.974 31.5909C213.702 30.7955 213.296 30.1667 212.759 29.7045C212.221 29.2424 211.55 29.0114 210.747 29.0114C209.937 29.0114 209.255 29.2424 208.702 29.7045C208.156 30.1667 207.743 30.7955 207.463 31.5909C207.19 32.3864 207.054 33.2917 207.054 34.3068C207.054 35.322 207.19 36.2273 207.463 37.0227C207.743 37.8182 208.156 38.447 208.702 38.9091C209.255 39.3636 209.937 39.5909 210.747 39.5909ZM227.304 32.9091V43H222.463V25.5455H227.077V28.625H227.281C227.668 27.6098 228.315 26.8068 229.224 26.2159C230.134 25.6174 231.236 25.3182 232.531 25.3182C233.743 25.3182 234.8 25.5833 235.702 26.1136C236.603 26.6439 237.304 27.4015 237.804 28.3864C238.304 29.3636 238.554 30.5303 238.554 31.8864V43H233.713V32.75C233.721 31.6818 233.448 30.8485 232.895 30.25C232.342 29.6439 231.58 29.3409 230.611 29.3409C229.959 29.3409 229.384 29.4811 228.884 29.7614C228.391 30.0417 228.005 30.4508 227.724 30.9886C227.452 31.5189 227.312 32.1591 227.304 32.9091ZM253.878 43H248.605L256.639 19.7273H262.98L271.003 43H265.73L259.901 25.0455H259.719L253.878 43ZM253.548 33.8523H266.003V37.6932H253.548V33.8523ZM278.554 32.9091V43H273.713V25.5455H278.327V28.625H278.531C278.918 27.6098 279.565 26.8068 280.474 26.2159C281.384 25.6174 282.486 25.3182 283.781 25.3182C284.993 25.3182 286.05 25.5833 286.952 26.1136C287.853 26.6439 288.554 27.4015 289.054 28.3864C289.554 29.3636 289.804 30.5303 289.804 31.8864V43H284.963V32.75C284.971 31.6818 284.698 30.8485 284.145 30.25C283.592 29.6439 282.83 29.3409 281.861 29.3409C281.209 29.3409 280.634 29.4811 280.134 29.7614C279.641 30.0417 279.255 30.4508 278.974 30.9886C278.702 31.5189 278.562 32.1591 278.554 32.9091ZM293.619 43V25.5455H298.46V43H293.619ZM296.051 23.2955C295.331 23.2955 294.714 23.0568 294.199 22.5795C293.691 22.0947 293.438 21.5152 293.438 20.8409C293.438 20.1742 293.691 19.6023 294.199 19.125C294.714 18.6402 295.331 18.3977 296.051 18.3977C296.771 18.3977 297.384 18.6402 297.892 19.125C298.407 19.6023 298.665 20.1742 298.665 20.8409C298.665 21.5152 298.407 22.0947 297.892 22.5795C297.384 23.0568 296.771 23.2955 296.051 23.2955ZM302.338 43V25.5455H306.952V28.625H307.156C307.52 27.6023 308.126 26.7955 308.974 26.2045C309.823 25.6136 310.838 25.3182 312.02 25.3182C313.217 25.3182 314.236 25.6174 315.077 26.2159C315.918 26.8068 316.478 27.6098 316.759 28.625H316.94C317.296 27.625 317.94 26.8258 318.872 26.2273C319.812 25.6212 320.921 25.3182 322.202 25.3182C323.83 25.3182 325.152 25.8371 326.168 26.875C327.19 27.9053 327.702 29.3674 327.702 31.2614V43H322.872V32.2159C322.872 31.2462 322.615 30.5189 322.099 30.0341C321.584 29.5492 320.94 29.3068 320.168 29.3068C319.289 29.3068 318.603 29.5871 318.111 30.1477C317.618 30.7008 317.372 31.4318 317.372 32.3409V43H312.679V32.1136C312.679 31.2576 312.433 30.5758 311.94 30.0682C311.455 29.5606 310.815 29.3068 310.02 29.3068C309.482 29.3068 308.997 29.4432 308.565 29.7159C308.141 29.9811 307.804 30.3561 307.554 30.8409C307.304 31.3182 307.179 31.8788 307.179 32.5227V43H302.338ZM336.503 43.3295C335.389 43.3295 334.397 43.1364 333.526 42.75C332.654 42.3561 331.965 41.7765 331.457 41.0114C330.957 40.2386 330.707 39.2765 330.707 38.125C330.707 37.1553 330.885 36.3409 331.241 35.6818C331.598 35.0227 332.082 34.4924 332.696 34.0909C333.31 33.6894 334.007 33.3864 334.787 33.1818C335.575 32.9773 336.401 32.8333 337.264 32.75C338.279 32.6439 339.098 32.5455 339.719 32.4545C340.34 32.3561 340.791 32.2121 341.071 32.0227C341.351 31.8333 341.491 31.553 341.491 31.1818V31.1136C341.491 30.3939 341.264 29.8371 340.81 29.4432C340.363 29.0492 339.726 28.8523 338.901 28.8523C338.029 28.8523 337.336 29.0455 336.821 29.4318C336.306 29.8106 335.965 30.2879 335.798 30.8636L331.321 30.5C331.548 29.4394 331.995 28.5227 332.662 27.75C333.329 26.9697 334.188 26.3712 335.241 25.9545C336.302 25.5303 337.529 25.3182 338.923 25.3182C339.893 25.3182 340.821 25.4318 341.707 25.6591C342.601 25.8864 343.393 26.2386 344.082 26.7159C344.779 27.1932 345.329 27.8068 345.73 28.5568C346.132 29.2992 346.332 30.1894 346.332 31.2273V43H341.741V40.5795H341.605C341.325 41.125 340.95 41.6061 340.48 42.0227C340.01 42.4318 339.446 42.7538 338.787 42.9886C338.128 43.2159 337.366 43.3295 336.503 43.3295ZM337.889 39.9886C338.601 39.9886 339.23 39.8485 339.776 39.5682C340.321 39.2803 340.749 38.8939 341.06 38.4091C341.37 37.9242 341.526 37.375 341.526 36.7614V34.9091C341.374 35.0076 341.166 35.0985 340.901 35.1818C340.643 35.2576 340.351 35.3295 340.026 35.3977C339.7 35.4583 339.374 35.5152 339.048 35.5682C338.723 35.6136 338.427 35.6553 338.162 35.6932C337.594 35.7765 337.098 35.9091 336.673 36.0909C336.249 36.2727 335.92 36.5189 335.685 36.8295C335.45 37.1326 335.332 37.5114 335.332 37.9659C335.332 38.625 335.571 39.1288 336.048 39.4773C336.533 39.8182 337.147 39.9886 337.889 39.9886ZM354.929 19.7273V43H350.088V19.7273H354.929ZM366.304 43V19.7273H371.224V29.3295H381.213V19.7273H386.122V43H381.213V33.3864H371.224V43H366.304ZM395.065 43.3295C393.952 43.3295 392.959 43.1364 392.088 42.75C391.217 42.3561 390.527 41.7765 390.02 41.0114C389.52 40.2386 389.27 39.2765 389.27 38.125C389.27 37.1553 389.448 36.3409 389.804 35.6818C390.16 35.0227 390.645 34.4924 391.259 34.0909C391.872 33.6894 392.569 33.3864 393.349 33.1818C394.137 32.9773 394.963 32.8333 395.827 32.75C396.842 32.6439 397.66 32.5455 398.281 32.4545C398.902 32.3561 399.353 32.2121 399.634 32.0227C399.914 31.8333 400.054 31.553 400.054 31.1818V31.1136C400.054 30.3939 399.827 29.8371 399.372 29.4432C398.925 29.0492 398.289 28.8523 397.463 28.8523C396.592 28.8523 395.899 29.0455 395.384 29.4318C394.868 29.8106 394.527 30.2879 394.361 30.8636L389.884 30.5C390.111 29.4394 390.558 28.5227 391.224 27.75C391.891 26.9697 392.751 26.3712 393.804 25.9545C394.865 25.5303 396.092 25.3182 397.486 25.3182C398.455 25.3182 399.384 25.4318 400.27 25.6591C401.164 25.8864 401.955 26.2386 402.645 26.7159C403.342 27.1932 403.891 27.8068 404.293 28.5568C404.694 29.2992 404.895 30.1894 404.895 31.2273V43H400.304V40.5795H400.168C399.887 41.125 399.512 41.6061 399.043 42.0227C398.573 42.4318 398.009 42.7538 397.349 42.9886C396.69 43.2159 395.929 43.3295 395.065 43.3295ZM396.452 39.9886C397.164 39.9886 397.793 39.8485 398.338 39.5682C398.884 39.2803 399.312 38.8939 399.622 38.4091C399.933 37.9242 400.088 37.375 400.088 36.7614V34.9091C399.937 35.0076 399.728 35.0985 399.463 35.1818C399.205 35.2576 398.914 35.3295 398.588 35.3977C398.262 35.4583 397.937 35.5152 397.611 35.5682C397.285 35.6136 396.99 35.6553 396.724 35.6932C396.156 35.7765 395.66 35.9091 395.236 36.0909C394.812 36.2727 394.482 36.5189 394.247 36.8295C394.012 37.1326 393.895 37.5114 393.895 37.9659C393.895 38.625 394.134 39.1288 394.611 39.4773C395.096 39.8182 395.709 39.9886 396.452 39.9886ZM413.491 32.9091V43H408.651V25.5455H413.264V28.625H413.469C413.855 27.6098 414.503 26.8068 415.412 26.2159C416.321 25.6174 417.423 25.3182 418.719 25.3182C419.931 25.3182 420.988 25.5833 421.889 26.1136C422.791 26.6439 423.491 27.4015 423.991 28.3864C424.491 29.3636 424.741 30.5303 424.741 31.8864V43H419.901V32.75C419.908 31.6818 419.635 30.8485 419.082 30.25C418.529 29.6439 417.768 29.3409 416.798 29.3409C416.147 29.3409 415.571 29.4811 415.071 29.7614C414.579 30.0417 414.192 30.4508 413.912 30.9886C413.639 31.5189 413.499 32.1591 413.491 32.9091ZM434.989 43.2841C433.663 43.2841 432.462 42.9432 431.386 42.2614C430.318 41.572 429.47 40.5606 428.841 39.2273C428.22 37.8864 427.909 36.2424 427.909 34.2955C427.909 32.2955 428.231 30.6326 428.875 29.3068C429.519 27.9735 430.375 26.9773 431.443 26.3182C432.519 25.6515 433.697 25.3182 434.977 25.3182C435.955 25.3182 436.769 25.4848 437.42 25.8182C438.08 26.1439 438.61 26.553 439.011 27.0455C439.42 27.5303 439.731 28.0076 439.943 28.4773H440.091V19.7273H444.92V43H440.148V40.2045H439.943C439.716 40.6894 439.394 41.1705 438.977 41.6477C438.568 42.1174 438.034 42.5076 437.375 42.8182C436.723 43.1288 435.928 43.2841 434.989 43.2841ZM436.523 39.4318C437.303 39.4318 437.962 39.2197 438.5 38.7955C439.045 38.3636 439.462 37.7614 439.75 36.9886C440.045 36.2159 440.193 35.3106 440.193 34.2727C440.193 33.2348 440.049 32.3333 439.761 31.5682C439.473 30.803 439.057 30.2121 438.511 29.7955C437.966 29.3788 437.303 29.1705 436.523 29.1705C435.727 29.1705 435.057 29.3864 434.511 29.8182C433.966 30.25 433.553 30.8485 433.273 31.6136C432.992 32.3788 432.852 33.2652 432.852 34.2727C432.852 35.2879 432.992 36.1856 433.273 36.9659C433.561 37.7386 433.973 38.3447 434.511 38.7841C435.057 39.2159 435.727 39.4318 436.523 39.4318ZM448.901 43V25.5455H453.741V43H448.901ZM451.332 23.2955C450.613 23.2955 449.995 23.0568 449.48 22.5795C448.973 22.0947 448.719 21.5152 448.719 20.8409C448.719 20.1742 448.973 19.6023 449.48 19.125C449.995 18.6402 450.613 18.3977 451.332 18.3977C452.052 18.3977 452.666 18.6402 453.173 19.125C453.688 19.6023 453.946 20.1742 453.946 20.8409C453.946 21.5152 453.688 22.0947 453.173 22.5795C452.666 23.0568 452.052 23.2955 451.332 23.2955ZM465.506 43.3409C463.718 43.3409 462.18 42.9621 460.892 42.2045C459.612 41.4394 458.627 40.3788 457.938 39.0227C457.256 37.6667 456.915 36.1061 456.915 34.3409C456.915 32.553 457.259 30.9848 457.949 29.6364C458.646 28.2803 459.634 27.2235 460.915 26.4659C462.195 25.7008 463.718 25.3182 465.483 25.3182C467.006 25.3182 468.339 25.5947 469.483 26.1477C470.627 26.7008 471.532 27.4773 472.199 28.4773C472.866 29.4773 473.233 30.6515 473.301 32H468.733C468.604 31.1288 468.263 30.428 467.71 29.8977C467.165 29.3598 466.449 29.0909 465.562 29.0909C464.812 29.0909 464.157 29.2955 463.597 29.7045C463.044 30.1061 462.612 30.6932 462.301 31.4659C461.991 32.2386 461.835 33.1742 461.835 34.2727C461.835 35.3864 461.987 36.3333 462.29 37.1136C462.6 37.8939 463.036 38.4886 463.597 38.8977C464.157 39.3068 464.812 39.5114 465.562 39.5114C466.116 39.5114 466.612 39.3977 467.051 39.1705C467.498 38.9432 467.866 38.6136 468.153 38.1818C468.449 37.7424 468.642 37.2159 468.733 36.6023H473.301C473.225 37.9356 472.862 39.1098 472.21 40.125C471.566 41.1326 470.676 41.9205 469.54 42.4886C468.403 43.0568 467.059 43.3409 465.506 43.3409ZM481.378 43.3295C480.264 43.3295 479.272 43.1364 478.401 42.75C477.529 42.3561 476.84 41.7765 476.332 41.0114C475.832 40.2386 475.582 39.2765 475.582 38.125C475.582 37.1553 475.76 36.3409 476.116 35.6818C476.473 35.0227 476.957 34.4924 477.571 34.0909C478.185 33.6894 478.882 33.3864 479.662 33.1818C480.45 32.9773 481.276 32.8333 482.139 32.75C483.154 32.6439 483.973 32.5455 484.594 32.4545C485.215 32.3561 485.666 32.2121 485.946 32.0227C486.226 31.8333 486.366 31.553 486.366 31.1818V31.1136C486.366 30.3939 486.139 29.8371 485.685 29.4432C485.238 29.0492 484.601 28.8523 483.776 28.8523C482.904 28.8523 482.211 29.0455 481.696 29.4318C481.181 29.8106 480.84 30.2879 480.673 30.8636L476.196 30.5C476.423 29.4394 476.87 28.5227 477.537 27.75C478.204 26.9697 479.063 26.3712 480.116 25.9545C481.177 25.5303 482.404 25.3182 483.798 25.3182C484.768 25.3182 485.696 25.4318 486.582 25.6591C487.476 25.8864 488.268 26.2386 488.957 26.7159C489.654 27.1932 490.204 27.8068 490.605 28.5568C491.007 29.2992 491.207 30.1894 491.207 31.2273V43H486.616V40.5795H486.48C486.2 41.125 485.825 41.6061 485.355 42.0227C484.885 42.4318 484.321 42.7538 483.662 42.9886C483.003 43.2159 482.241 43.3295 481.378 43.3295ZM482.764 39.9886C483.476 39.9886 484.105 39.8485 484.651 39.5682C485.196 39.2803 485.624 38.8939 485.935 38.4091C486.245 37.9242 486.401 37.375 486.401 36.7614V34.9091C486.249 35.0076 486.041 35.0985 485.776 35.1818C485.518 35.2576 485.226 35.3295 484.901 35.3977C484.575 35.4583 484.249 35.5152 483.923 35.5682C483.598 35.6136 483.302 35.6553 483.037 35.6932C482.469 35.7765 481.973 35.9091 481.548 36.0909C481.124 36.2727 480.795 36.5189 480.56 36.8295C480.325 37.1326 480.207 37.5114 480.207 37.9659C480.207 38.625 480.446 39.1288 480.923 39.4773C481.408 39.8182 482.022 39.9886 482.764 39.9886ZM494.963 49.5455V25.5455H499.736V28.4773H499.952C500.164 28.0076 500.471 27.5303 500.872 27.0455C501.281 26.553 501.812 26.1439 502.463 25.8182C503.122 25.4848 503.94 25.3182 504.918 25.3182C506.19 25.3182 507.365 25.6515 508.44 26.3182C509.516 26.9773 510.376 27.9735 511.02 29.3068C511.664 30.6326 511.986 32.2955 511.986 34.2955C511.986 36.2424 511.671 37.8864 511.043 39.2273C510.421 40.5606 509.573 41.572 508.497 42.2614C507.429 42.9432 506.232 43.2841 504.906 43.2841C503.967 43.2841 503.168 43.1288 502.509 42.8182C501.857 42.5076 501.323 42.1174 500.906 41.6477C500.49 41.1705 500.171 40.6894 499.952 40.2045H499.804V49.5455H494.963ZM499.702 34.2727C499.702 35.3106 499.846 36.2159 500.134 36.9886C500.421 37.7614 500.838 38.3636 501.384 38.7955C501.929 39.2197 502.592 39.4318 503.372 39.4318C504.16 39.4318 504.827 39.2159 505.372 38.7841C505.918 38.3447 506.33 37.7386 506.611 36.9659C506.899 36.1856 507.043 35.2879 507.043 34.2727C507.043 33.2652 506.902 32.3788 506.622 31.6136C506.342 30.8485 505.929 30.25 505.384 29.8182C504.838 29.3864 504.168 29.1705 503.372 29.1705C502.584 29.1705 501.918 29.3788 501.372 29.7955C500.834 30.2121 500.421 30.803 500.134 31.5682C499.846 32.3333 499.702 33.2348 499.702 34.2727Z" fill="black"/>
<path d="M18.1416 0.0589263C15.7828 0.469316 13.6313 2.24145 12.5424 4.66648C11.8987 6.10751 11.6033 7.51123 11.5636 9.34399C11.5283 10.9482 11.6959 12.31 12.0971 13.7743C12.9127 16.7357 14.8482 19.1607 17.1804 20.14C18.578 20.723 20.0065 20.9562 21.479 20.8489C22.9868 20.737 24.1419 20.3499 24.8209 19.739C25.3544 19.2586 25.8878 18.4518 26.148 17.7383C26.4125 17.0201 26.6726 15.7657 26.8578 14.3573C26.9371 13.7557 26.9371 11.1068 26.8578 10.4166C26.461 6.95161 25.7468 4.78307 24.3668 2.8617C23.3263 1.41601 22.0478 0.515951 20.5003 0.128879C20.0153 0.00762756 18.6706 -0.0343441 18.1416 0.0589263ZM19.7508 3.23012C20.4562 3.36536 20.9985 3.69647 21.5848 4.34004C22.8546 5.74376 23.5512 7.73508 23.8554 10.8317C24.0097 12.3753 23.9347 13.9142 23.6305 15.4532C23.4409 16.4139 23.2999 16.7963 23.0089 17.1321C22.7135 17.4725 22.2197 17.6078 21.1395 17.6544C20.2931 17.687 19.6935 17.6078 18.9263 17.3606C17.8814 17.0248 17.0967 16.4792 16.4442 15.6397C15.6462 14.6044 15.1259 13.4013 14.8394 11.9322C14.253 8.88697 14.7864 6.14016 16.2634 4.57321C17.2995 3.48195 18.5472 3.00161 19.7508 3.23012Z" fill="black"/>
<path d="M37.7387 0.0169999C37.7034 0.026327 37.5226 0.0589716 37.3419 0.0869527C36.0589 0.306138 34.6834 1.14091 33.7222 2.28347C32.0822 4.23282 31.1872 6.67651 30.7904 10.2534C30.6978 11.1255 30.6581 13.0329 30.7242 13.7837C30.8653 15.4066 31.1828 17.0015 31.5443 17.9063C31.8926 18.7877 32.6862 19.7577 33.3519 20.1261C34.0926 20.5365 34.9523 20.7603 36.1383 20.8489C37.699 20.9655 39.2994 20.6764 40.697 20.0282C42.4164 19.226 43.933 17.6031 44.8809 15.5465C46.1992 12.6924 46.4549 8.72845 45.5158 5.77645C44.59 2.87107 42.4208 0.735182 39.7667 0.11027C39.4625 0.0403175 37.9282 -0.0342988 37.7387 0.0169999ZM39.3038 3.28146C40.6441 3.64522 41.8124 4.7598 42.4208 6.24746C43.4481 8.77509 43.1218 12.5665 41.6757 14.9403C40.7278 16.4885 39.4801 17.3233 37.6858 17.6031C36.8084 17.7384 35.4902 17.6404 34.9479 17.3933C34.7274 17.2953 34.4541 16.9875 34.3439 16.7171C34.0308 15.9756 33.7487 14.2734 33.6958 12.865C33.6385 11.2374 33.9427 8.91033 34.41 7.3807C35.0096 5.43135 36.0986 3.9157 37.2713 3.40738C37.8401 3.16488 38.6821 3.10891 39.3038 3.28146Z" fill="black"/>
<path d="M6.23769 15.0847C4.47417 15.3692 3.33669 15.9474 2.22126 17.1273C1.62167 17.7615 1.21165 18.3771 0.814853 19.2305C-0.80759 22.7189 0.0477195 27.3917 2.8914 30.5816C3.59681 31.3744 4.77397 32.4003 5.59841 32.9413C6.17156 33.3144 7.2429 33.8553 7.80282 34.0512C8.6934 34.3637 9.7427 34.5316 10.5363 34.4849C11.5635 34.429 12.0882 34.2797 13.0581 33.7714C13.6886 33.4403 13.7194 33.417 14.2529 32.8713C14.7555 32.3584 14.8217 32.2744 15.0774 31.7754C15.4521 31.0432 15.721 30.3204 15.8004 29.8307C16.1663 27.5969 15.8092 24.6402 14.8701 22.1219C14.1691 20.2425 13.2389 18.6616 12.1675 17.5284C10.986 16.2785 9.71625 15.523 8.26575 15.1966C7.83809 15.1033 6.56835 15.0334 6.23769 15.0847ZM7.91304 18.3911C8.2922 18.4984 9.00643 18.8808 9.36795 19.1699C11.1623 20.5923 12.5599 23.6469 12.873 26.8088C12.9611 27.7368 12.8994 29.1172 12.7407 29.7561C12.6746 30.0033 12.3836 30.4416 12.0926 30.7308C11.6385 31.1785 10.5804 31.3883 9.62807 31.2158C8.53909 31.0153 7.36194 30.3997 6.30382 29.467C4.65934 28.0213 3.72026 26.5663 3.30583 24.8314C2.78559 22.6582 3.22647 20.5596 4.46535 19.3145C4.96355 18.8108 5.50142 18.5124 6.1936 18.3445C6.54631 18.2559 7.55152 18.2839 7.91304 18.3911Z" fill="black"/>
<path d="M49.841 15.1083C48.9504 15.2296 47.8526 15.6446 47.0766 16.1669C46.4418 16.5867 46.0097 16.9597 45.4454 17.5613C44.9163 18.1303 44.7708 18.3075 44.4005 18.8485C42.9191 21.0357 41.839 24.3094 41.7243 26.9723C41.7111 27.2801 41.6935 27.6112 41.6891 27.7138C41.6626 28.0076 41.7464 29.2994 41.8169 29.7704C41.8963 30.2927 42.0462 30.7125 42.4694 31.5892C42.7472 32.1581 42.8354 32.2934 43.1616 32.6571C43.6598 33.2074 43.9817 33.4686 44.4799 33.7298C45.441 34.2427 46.0979 34.4339 47.0811 34.4852C47.9893 34.5365 49.2634 34.3034 50.1937 33.9116C51.1592 33.5059 52.3011 32.8157 53.0594 32.1768C55.2153 30.358 56.3881 28.6838 57.1111 26.3801C58.2177 22.8591 57.5167 19.2635 55.2814 16.9924C54.241 15.9338 52.9977 15.3182 51.481 15.1037C51.0798 15.0477 50.2819 15.0524 49.841 15.1083ZM51.8338 18.4707C52.4025 18.6759 52.7067 18.8671 53.1167 19.2775C53.5311 19.6926 53.7736 20.0517 54.047 20.6579C54.4261 21.502 54.5628 22.2715 54.5231 23.3348C54.4438 25.4893 53.4959 27.4666 51.7985 29.0336C50.8374 29.9197 50.3612 30.2694 49.5412 30.6798C48.2494 31.3327 47.1736 31.4446 46.0406 31.0482C45.7849 30.9596 45.6967 30.899 45.4322 30.6145C45.2646 30.4326 45.0706 30.1762 45.0045 30.0456C44.8414 29.7285 44.7488 29.1035 44.7179 28.1615C44.6518 25.923 45.2779 23.4654 46.4638 21.3434C47.2221 19.9864 48.3508 18.8951 49.4045 18.5034C49.9159 18.3168 50.1672 18.2749 50.7889 18.2935C51.3356 18.3028 51.4193 18.3215 51.8338 18.4707Z" fill="black"/>
<path d="M28.436 20.9814C27.0825 21.4757 25.9759 22.1986 24.2432 23.7329C22.0256 25.6915 19.539 28.6762 17.6917 31.6049C16.153 34.0439 14.8172 36.6835 13.737 39.4256C11.8412 44.2477 11.127 48.1557 11.6428 50.8419C11.9162 52.2503 12.5995 53.6587 13.618 54.8945C14.3939 55.8365 15.9414 56.9138 17.0701 57.2962C17.8636 57.5667 18.2516 57.6273 19.1995 57.6273C19.9402 57.6273 20.1606 57.6087 20.5751 57.5201C23.1013 56.9791 25.5438 55.3842 28.3037 52.4741C29.04 51.6953 29.8865 50.9305 30.4464 50.5294C30.5919 50.4268 30.9446 50.1983 31.2356 50.0258C31.8925 49.634 32.351 49.2983 32.8668 48.8459C35.2829 46.7007 37.2316 43.8233 38.0692 41.1744C38.7173 39.1318 38.5278 37.1871 37.5534 35.8067C36.9009 34.888 35.9177 34.1605 34.8288 33.7967C34.2027 33.5915 33.8676 33.5309 33.171 33.5076C31.9322 33.461 31.0063 33.7175 30.0893 34.3564C29.8292 34.5382 29.1105 35.2564 28.9298 35.5129L28.8372 35.6435L28.3169 35.0885C27.5542 34.2724 26.9987 33.9226 26.0155 33.6428C25.632 33.5356 25.5129 33.5216 24.7326 33.5216C24.058 33.5169 23.7935 33.5356 23.5025 33.6009C22.2989 33.876 21.4216 34.3517 20.6236 35.1631C20.0196 35.7787 19.6051 36.4783 19.3847 37.2711C18.8909 39.0199 19.2612 41.0625 20.5089 43.4222C21.5494 45.3996 22.8632 47.0971 24.6224 48.7293C25.1073 49.1817 25.2572 49.4568 25.2925 49.9698C25.3234 50.3989 25.2572 50.73 25.05 51.1683C24.8957 51.4995 24.8516 51.5461 24.2917 52.0218C23.0616 53.0664 21.9286 53.7659 20.8484 54.1437C19.2568 54.6986 18.1679 54.5541 16.8364 53.6167C16.0428 53.0571 15.4476 52.3296 15.0111 51.3782C14.535 50.3476 14.416 49.4195 14.5703 47.8806C14.7422 46.1877 15.161 44.4995 16.0031 42.0978C17.0701 39.0758 18.5117 36.0772 20.1606 33.4703C21.8624 30.7794 24.0007 28.1819 26.0111 26.3631C27.1971 25.2858 28.5418 24.3065 28.8195 24.3065C29.0135 24.3065 29.8865 24.8987 30.7947 25.6449C33.4312 27.8134 36.2969 31.3391 38.3646 34.9626C40.2692 38.2924 41.9269 42.3869 42.6764 45.5954C43.0953 47.3816 43.2231 49.1863 43.0115 50.2123C42.7338 51.5554 41.9005 52.8332 40.8027 53.6027C39.4668 54.5401 38.3911 54.694 36.8436 54.167C36.1646 53.9385 35.8736 53.64 35.6708 52.9638C35.3049 51.7606 34.4496 50.9072 33.2857 50.6041C32.9771 50.5201 32.8272 50.5061 32.4039 50.5248C31.5221 50.5668 30.8564 50.8792 30.2171 51.5647C29.9262 51.8725 29.8203 52.0264 29.6528 52.3855C29.5426 52.628 29.4147 52.9591 29.3751 53.127C29.2737 53.5421 29.2737 54.4002 29.3795 54.8059C29.6925 56.0231 30.5478 56.9464 31.6765 57.2869C31.9542 57.3662 32.1438 57.3895 32.5582 57.3895C33.149 57.3895 33.343 57.3428 34.0264 57.0351C34.6083 56.7739 34.7979 56.7646 35.2917 56.9651C35.834 57.1889 36.4777 57.3941 37.0332 57.5201C37.43 57.6087 37.6284 57.6227 38.4219 57.6227C39.2111 57.6227 39.4095 57.6087 39.7754 57.5247C41.464 57.1237 43.1526 56.0184 44.2328 54.6054C45.9434 52.3669 46.446 50.1191 45.9831 46.7613C45.476 43.0911 43.5053 37.8027 41.0099 33.4003C38.7923 29.483 35.8251 25.7941 32.9109 23.3178C31.5486 22.1659 30.4596 21.4617 29.4853 21.112C29.0532 20.9581 28.6432 20.9068 28.436 20.9814ZM25.2484 36.385C25.826 36.5995 26.1654 36.9073 27.0207 37.9846C27.5895 38.7121 28.0568 39.1878 28.3566 39.3556C28.5947 39.4956 28.9959 39.5002 29.2516 39.3696C29.525 39.2297 30.0981 38.6468 30.636 37.9519C31.4384 36.926 31.8749 36.5435 32.4436 36.3663C32.9418 36.2124 33.6516 36.3104 34.1101 36.5995C34.4276 36.8047 34.5995 36.9773 34.8728 37.3643C35.3005 37.9799 35.4328 38.4183 35.3931 39.1271C35.3314 40.1997 34.2468 42.4289 32.9418 44.1731C32.5229 44.728 31.0813 46.2577 30.6404 46.6074C30.1246 47.0178 29.6264 47.3209 29.2119 47.4608L28.8284 47.5914L28.555 47.5121C27.7835 47.2883 26.9414 46.6587 25.8304 45.4835C24.9795 44.5788 24.468 43.9352 23.9169 43.0538C23.2115 41.9299 22.8412 41.1791 22.4576 40.0925C22.2504 39.5002 22.246 39.4722 22.246 38.9499C22.2416 38.3064 22.3033 38.0872 22.6252 37.5649C23.163 36.6928 23.7891 36.301 24.6576 36.2964C24.8913 36.2917 25.0765 36.3197 25.2484 36.385Z" fill="black"/>
</svg>
